<svg width="305" height="70" viewBox="0 0 305 70" fill="none" xmlns="http://www.w3.org/2000/svg">
<path d="M50.2279 31.3956L57.8846 1.07796H66.4601C68.2977 1.07796 69.9538 1.48219 71.4284 2.29066C72.903 3.09913 74.0601 4.18832 74.8994 5.55823C75.7615 6.92813 76.1926 8.4777 76.1926 10.2069C76.1926 11.7116 75.8636 13.1489 75.2057 14.5188C74.5705 15.8887 73.6744 17.1126 72.5174 18.1906C71.383 19.2685 70.0786 20.1219 68.6039 20.7507C67.152 21.3571 65.6093 21.6602 63.9759 21.6602H58.5992L56.1491 31.3956H50.2279ZM59.9264 16.4052H63.8058C64.9855 16.4052 66.0404 16.1469 66.9705 15.6304C67.9234 15.0914 68.672 14.384 69.2165 13.5082C69.7836 12.6323 70.0672 11.6891 70.0672 10.6785C70.0672 9.42092 69.6135 8.38787 68.706 7.5794C67.7986 6.74848 66.5735 6.33301 65.0308 6.33301H62.4786L59.9264 16.4052Z" fill="#F8ED43"/>
<path d="M70.483 31.3956L91.8197 0H91.8877L97.5707 31.3956H91.7516L90.8328 26.0058H80.4197L76.7785 31.3956H70.483ZM83.6866 21.155H89.9821L89.4376 18.0558C89.2788 17.2249 89.1427 16.4277 89.0292 15.6641C88.9158 14.8781 88.8477 13.9686 88.8251 12.9355C88.3259 13.9461 87.8268 14.8444 87.3277 15.6304C86.8513 16.4164 86.3295 17.2249 85.7624 18.0558L83.6866 21.155Z" fill="#F8ED43"/>
<path d="M101.241 31.3956L108.897 1.07796H115.227L108.931 25.9384H118.119L116.758 31.3956H101.241Z" fill="#F8ED43"/>
<path d="M118.816 31.3956L140.153 0H140.221L145.904 31.3956H140.084L139.166 26.0058H128.753L125.111 31.3956H118.816ZM132.019 21.155H138.315L137.77 18.0558C137.612 17.2249 137.476 16.4277 137.362 15.6641C137.249 14.8781 137.181 13.9686 137.158 12.9355C136.659 13.9461 136.16 14.8444 135.661 15.6304C135.184 16.4164 134.662 17.2249 134.095 18.0558L132.019 21.155Z" fill="#F8ED43"/>
<path d="M149.573 31.3956L157.23 1.07796H166.622C168.573 1.07796 170.173 1.66185 171.421 2.82964C172.668 3.99743 173.292 5.47963 173.292 7.27623C173.292 8.57876 172.963 9.80269 172.305 10.948C171.647 12.0934 170.785 13.0141 169.719 13.7103C170.649 14.4963 171.375 15.4508 171.897 16.5736C172.441 17.6965 172.714 18.9204 172.714 20.2454C172.714 21.7276 172.385 23.1424 171.727 24.4899C171.092 25.8149 170.218 26.9939 169.107 28.0269C168.018 29.06 166.758 29.8797 165.329 30.486C163.9 31.0924 162.403 31.3956 160.837 31.3956H149.573ZM156.856 25.9384H160.361C161.427 25.9384 162.403 25.6689 163.287 25.1299C164.195 24.591 164.921 23.8723 165.465 22.974C166.033 22.0757 166.316 21.11 166.316 20.077C166.316 18.7745 165.874 17.7077 164.989 16.8768C164.127 16.0459 162.993 15.6304 161.586 15.6304H159.476L156.856 25.9384ZM160.565 11.3859H164.172C165.08 11.3859 165.874 11.0603 166.554 10.409C167.235 9.73532 167.575 8.94931 167.575 8.05101C167.575 7.30991 167.326 6.70356 166.827 6.23195C166.327 5.76035 165.681 5.52454 164.887 5.52454H162.028L160.565 11.3859Z" fill="#F8ED43"/>
<path d="M175.25 31.3956L182.839 1.07796H191.55C193.229 1.07796 194.738 1.44851 196.076 2.18961C197.415 2.90825 198.47 3.89637 199.241 5.15399C200.035 6.41161 200.432 7.82644 200.432 9.39846C200.432 10.6336 200.182 11.8351 199.683 13.0029C199.184 14.1482 198.492 15.1925 197.607 16.1357C196.745 17.0565 195.747 17.8312 194.613 18.4601L199.241 31.3956H192.945L189.032 19.8749H184.064L181.171 31.3956H175.25ZM185.323 14.8219H189.27C190.223 14.8219 191.096 14.6086 191.891 14.1819C192.685 13.7552 193.308 13.1825 193.762 12.4639C194.239 11.7453 194.477 10.9593 194.477 10.1059C194.477 9.02791 194.091 8.1633 193.32 7.51203C192.548 6.86076 191.527 6.53513 190.257 6.53513H187.399L185.323 14.8219Z" fill="#F8ED43"/>
<path d="M199.45 31.3956L220.787 0H220.855L226.538 31.3956H220.719L219.8 26.0058H209.387L205.746 31.3956H199.45ZM212.654 21.155H218.949L218.405 18.0558C218.246 17.2249 218.11 16.4277 217.997 15.6641C217.883 14.8781 217.815 13.9686 217.792 12.9355C217.293 13.9461 216.794 14.8444 216.295 15.6304C215.819 16.4164 215.297 17.2249 214.73 18.0558L212.654 21.155Z" fill="#F8ED43"/>
<path d="M239.464 32.0693C237.558 32.0693 235.698 31.6426 233.883 30.7892C232.068 29.9134 230.696 28.7905 229.766 27.4206L233.066 20.9865C233.361 22.0196 233.872 22.9628 234.598 23.8162C235.324 24.6696 236.152 25.3545 237.082 25.871C238.035 26.3651 238.999 26.6121 239.975 26.6121C240.769 26.6121 241.483 26.4437 242.118 26.1068C242.776 25.77 243.298 25.3208 243.684 24.7594C244.069 24.1979 244.262 23.5691 244.262 22.873C244.262 22.2217 244.081 21.6266 243.718 21.0876C243.355 20.5261 242.776 19.931 241.982 19.3022L238.852 16.8431C237.241 15.563 236.106 14.4065 235.449 13.3734C234.813 12.3179 234.496 11.1277 234.496 9.80269C234.496 8.02855 234.949 6.43407 235.857 5.01925C236.764 3.60443 237.989 2.48155 239.532 1.65062C241.075 0.819698 242.799 0.404234 244.705 0.404234C246.406 0.404234 248.074 0.741096 249.707 1.41482C251.363 2.08855 252.736 2.99808 253.825 4.14341L250.66 10.4427C249.957 9.05037 249.004 7.92749 247.801 7.07411C246.622 6.22072 245.397 5.79403 244.126 5.79403C243.083 5.79403 242.209 6.09721 241.506 6.70356C240.803 7.30991 240.451 8.07347 240.451 8.99423C240.451 9.53321 240.61 10.0385 240.927 10.5101C241.268 10.9593 241.846 11.487 242.663 12.0934L245.828 14.4514C247.37 15.5743 248.482 16.7308 249.163 17.9211C249.866 19.0889 250.217 20.4026 250.217 21.8624C250.217 23.7263 249.73 25.4331 248.754 26.9827C247.779 28.5322 246.474 29.7674 244.841 30.6882C243.23 31.6089 241.438 32.0693 239.464 32.0693Z" fill="#F8ED43"/>
<path d="M0 68.9894L7.65669 38.6718H23.991L22.6638 43.9269H12.2507L11.0937 48.5756H19.1247L17.8656 53.6285H9.80056L7.28236 63.5322H17.6955L16.3343 68.9894H0Z" fill="#F8ED43"/>
<path d="M45.2936 70L31.6817 50.9336L27.1557 68.9894H21.4387L29.3336 37.6612L42.9455 56.6939L47.4715 38.6718H53.1885L45.2936 70Z" fill="#F8ED43"/>
<path d="M68.8081 69.5958C66.1084 69.5958 63.6696 68.9782 61.4917 67.743C59.3365 66.5079 57.6237 64.8348 56.3532 62.7238C55.1055 60.6128 54.4816 58.2547 54.4816 55.6497C54.4816 53.3365 54.9694 51.1357 55.9449 49.0472C56.9204 46.9362 58.2476 45.061 59.9264 43.4216C61.6052 41.7597 63.5222 40.4572 65.6774 39.514C67.8326 38.5483 70.1013 38.0654 72.4833 38.0654C74.5024 38.0654 76.3741 38.4135 78.0982 39.1097C79.8224 39.8059 81.3197 40.7716 82.5902 42.0067L79.4254 48.5082C78.7221 47.1158 77.7012 46.0042 76.3627 45.1732C75.0469 44.3423 73.5383 43.9269 71.8368 43.9269C70.4075 43.9269 69.035 44.23 67.7192 44.8364C66.4034 45.4427 65.235 46.2737 64.2141 47.3292C63.2159 48.3622 62.4219 49.5525 61.832 50.8999C61.2422 52.2249 60.9473 53.6173 60.9473 55.077C60.9473 56.6939 61.3216 58.1649 62.0702 59.4899C62.8189 60.7924 63.8398 61.8255 65.1329 62.589C66.426 63.3526 67.878 63.7344 69.4887 63.7344C71.4171 63.7344 73.2093 63.1954 74.8654 62.1174C76.5442 61.017 77.8714 59.6359 78.8469 57.974V66.3619C77.395 67.3725 75.8069 68.1697 74.0827 68.7536C72.3812 69.315 70.623 69.5958 68.8081 69.5958Z" fill="#F8ED43"/>
<path d="M78.8288 68.9894L100.165 37.5938H100.234L105.916 68.9894H100.097L99.1786 63.5996H88.7655L85.1243 68.9894H78.8288ZM92.0324 58.7488H98.3279L97.7834 55.6497C97.6246 54.8187 97.4885 54.0215 97.375 53.2579C97.2616 52.4719 97.1935 51.5624 97.1708 50.5294C96.6717 51.5399 96.1726 52.4382 95.6735 53.2243C95.1971 54.0103 94.6753 54.8187 94.1082 55.6497L92.0324 58.7488Z" fill="#F8ED43"/>
<path d="M109.586 68.9894L117.243 38.6718H125.921C128.62 38.6718 131.048 39.2669 133.203 40.4572C135.381 41.6474 137.094 43.2531 138.342 45.2743C139.612 47.2955 140.247 49.5749 140.247 52.1126C140.247 54.3359 139.759 56.4581 138.784 58.4793C137.808 60.5005 136.481 62.3083 134.802 63.9028C133.124 65.4748 131.207 66.7212 129.051 67.642C126.896 68.5403 124.628 68.9894 122.245 68.9894H109.586ZM116.869 63.5322H122.518C124.015 63.5322 125.433 63.2403 126.771 62.6564C128.133 62.05 129.335 61.2416 130.379 60.231C131.445 59.1979 132.273 58.0189 132.863 56.6939C133.475 55.3689 133.782 53.9766 133.782 52.5168C133.782 50.8774 133.396 49.4289 132.625 48.1713C131.876 46.9137 130.832 45.9256 129.494 45.2069C128.155 44.4883 126.613 44.129 124.866 44.129H121.803L116.869 63.5322Z" fill="#F8ED43"/>
<path d="M141.553 68.9894L149.21 38.6718H165.544L164.217 43.9269H153.804L152.647 48.5756H160.678L159.419 53.6285H151.354L148.835 63.5322H159.249L157.887 68.9894H141.553Z" fill="#F8ED43"/>
<path d="M186.847 70L173.235 50.9336L168.709 68.9894H162.992L170.887 37.6612L184.499 56.6939L189.025 38.6718H194.742L186.847 70Z" fill="#F8ED43"/>
<path d="M190.76 68.9894L212.097 37.5938H212.165L217.848 68.9894H212.029L211.11 63.5996H200.697L197.056 68.9894H190.76ZM203.964 58.7488H210.259L209.715 55.6497C209.556 54.8187 209.42 54.0215 209.306 53.2579C209.193 52.4719 209.125 51.5624 209.102 50.5294C208.603 51.5399 208.104 52.4382 207.605 53.2243C207.128 54.0103 206.607 54.8187 206.039 55.6497L203.964 58.7488Z" fill="#F8ED43"/>
<path d="M221.518 68.9894L229.174 38.6718H237.852C240.552 38.6718 242.979 39.2669 245.134 40.4572C247.312 41.6474 249.025 43.2531 250.273 45.2743C251.543 47.2955 252.178 49.5749 252.178 52.1126C252.178 54.3359 251.691 56.4581 250.715 58.4793C249.74 60.5005 248.412 62.3083 246.734 63.9028C245.055 65.4748 243.138 66.7212 240.983 67.642C238.827 68.5403 236.559 68.9894 234.177 68.9894H221.518ZM228.8 63.5322H234.449C235.946 63.5322 237.364 63.2403 238.703 62.6564C240.064 62.05 241.266 61.2416 242.31 60.231C243.376 59.1979 244.204 58.0189 244.794 56.6939C245.406 55.3689 245.713 53.9766 245.713 52.5168C245.713 50.8774 245.327 49.4289 244.556 48.1713C243.807 46.9137 242.764 45.9256 241.425 45.2069C240.087 44.4883 238.544 44.129 236.797 44.129H233.734L228.8 63.5322Z" fill="#F8ED43"/>
<path d="M250.626 68.9894L271.962 37.5938H272.031L277.713 68.9894H271.894L270.976 63.5996H260.562L256.921 68.9894H250.626ZM263.829 58.7488H270.125L269.58 55.6497C269.422 54.8187 269.285 54.0215 269.172 53.2579C269.059 52.4719 268.991 51.5624 268.968 50.5294C268.469 51.5399 267.97 52.4382 267.471 53.2243C266.994 54.0103 266.472 54.8187 265.905 55.6497L263.829 58.7488Z" fill="#F8ED43"/>
<path d="M290.639 69.6631C288.734 69.6631 286.874 69.2365 285.059 68.3831C283.244 67.5072 281.871 66.3843 280.941 65.0144L284.242 58.5804C284.537 59.6134 285.047 60.5566 285.773 61.41C286.499 62.2634 287.327 62.9483 288.257 63.4649C289.21 63.9589 290.174 64.206 291.15 64.206C291.944 64.206 292.659 64.0375 293.294 63.7007C293.952 63.3638 294.473 62.9147 294.859 62.3532C295.245 61.7918 295.438 61.163 295.438 60.4668C295.438 59.8155 295.256 59.2204 294.893 58.6814C294.53 58.12 293.952 57.5249 293.158 56.8961L290.027 54.437C288.416 53.1569 287.282 52.0003 286.624 50.9673C285.989 49.9118 285.671 48.7215 285.671 47.3965C285.671 45.6224 286.125 44.0279 287.032 42.6131C287.94 41.1983 289.165 40.0754 290.708 39.2445C292.25 38.4135 293.974 37.9981 295.88 37.9981C297.582 37.9981 299.249 38.3349 300.882 39.0087C302.539 39.6824 303.911 40.5919 305 41.7373L301.835 48.0366C301.132 46.6442 300.179 45.5213 298.977 44.6679C297.797 43.8146 296.572 43.3879 295.302 43.3879C294.258 43.3879 293.385 43.6911 292.681 44.2974C291.978 44.9038 291.626 45.6673 291.626 46.5881C291.626 47.127 291.785 47.6323 292.103 48.1039C292.443 48.5531 293.022 49.0808 293.838 49.6872L297.003 52.0452C298.546 53.1681 299.657 54.3247 300.338 55.5149C301.041 56.6827 301.393 57.9965 301.393 59.4562C301.393 61.3202 300.905 63.027 299.93 64.5765C298.954 66.1261 297.65 67.3612 296.016 68.282C294.405 69.2028 292.613 69.6631 290.639 69.6631Z" fill="#F8ED43"/>
</svg>
